<svg id="Layer_1" data-name="Layer 1" xmlns="http://www.w3.org/2000/svg" viewBox="0 0 50.53 25.33"><path d="M38,0H12.6c-16.81.69-16.8,24.65,0,25.33H37.93C54.68,24.66,54.74.77,38,0Zm-.08,21.11H12.6C1.4,20.69,1.42,4.63,12.6,4.22H37.93C49.11,4.64,49.11,20.69,37.93,21.11Z" style="fill:#fff;fill-rule:evenodd"/><path d="M25.22,6.23a.92.92,0,0,1,.92.92v4.63A2.14,2.14,0,0,0,27,13.66a2.77,2.77,0,1,1-3.58,0,2.14,2.14,0,0,0,.87-1.88V7.15A.92.92,0,0,1,25.22,6.23Zm0-1.23a2.15,2.15,0,0,0-2.15,2.15v4.63a1.21,1.21,0,0,1-.44.94,4,4,0,1,0,5.18,0,1.21,1.21,0,0,1-.44-.94V7.15A2.15,2.15,0,0,0,25.22,5Zm1.3,9.06a2.39,2.39,0,0,1-1-2v-4h-.62v4c.14,1.68-1.87,2.06-1.84,3.69a2.15,2.15,0,1,0,3.45-1.71Z" style="fill:#fff"/><path d="M17.83,6.46V8.88A5.67,5.67,0,0,0,14.16,7.4a4.69,4.69,0,0,0-3.53,1.5,5.09,5.09,0,0,0-1.44,3.66,5,5,0,0,0,1.44,3.6,4.76,4.76,0,0,0,3.54,1.47A4.36,4.36,0,0,0,16,17.28a5.52,5.52,0,0,0,.88-.48,10.37,10.37,0,0,0,.95-.72v2.47a7.41,7.41,0,0,1-3.69,1,6.85,6.85,0,0,1-5-2,6.77,6.77,0,0,1-2-4.94A7,7,0,0,1,8.84,8,6.85,6.85,0,0,1,14.3,5.47,6.94,6.94,0,0,1,17.83,6.46Z" style="fill:#c4c4c4"/><path d="M40.55,7.88H35.82v3.26h4.56v1.93H35.82v6.46h-2V6h6.78Z" style="fill:#fff"/></svg>