<svg id="Layer_1" data-name="Layer 1" xmlns="http://www.w3.org/2000/svg" viewBox="0 0 100 92.24"><defs><style>.cls-1,.cls-2{fill:#fff;}.cls-2{stroke:#000;stroke-miterlimit:10;stroke-width:0.25px;}</style></defs><path class="cls-1" d="M79.27,90.51l-.12.07-.1.08A8.64,8.64,0,0,1,68.57,76.93l.85-.61a32.71,32.71,0,1,0-38.84,0l.85.61a8.64,8.64,0,0,1-.25,13.53,8.64,8.64,0,0,1-9.09.88l-1.42-.89C6.93,81.54,0,67.59,0,50a50,50,0,0,1,100,0c0,17.63-6.9,31.58-20.69,40.47l0,0h0l.07-.05"/><path class="cls-2" d="M30.58,76.32"/></svg>