<svg id="Layer_1" data-name="Layer 1" xmlns="http://www.w3.org/2000/svg" viewBox="0 0 100.25 100.25"><line x1="49.81" y1="50.13" x2="49.81" y2="23.33" style="fill:#fff;stroke:#000;stroke-miterlimit:10;stroke-width:0.5px"/><line x1="49.81" y1="66.42" x2="49.81" y2="52.5" style="fill:#fff;stroke:#000;stroke-miterlimit:10;stroke-width:0.5px"/><line x1="49.81" y1="22.88" x2="51.3" y2="25.49" style="fill:#fff;stroke:#000;stroke-miterlimit:10;stroke-width:0.5px"/><line x1="49.81" y1="22.88" x2="48.31" y2="25.48" style="fill:#fff;stroke:#000;stroke-miterlimit:10;stroke-width:0.5px"/><line x1="49.81" y1="23.57" x2="49.81" y2="22.8" style="fill:#fff;stroke:#000;stroke-miterlimit:10;stroke-width:0.5px"/><path d="M49.81,50.13A1.19,1.19,0,1,0,51,51.31,1.18,1.18,0,0,0,49.81,50.13Zm0,1.5a.32.32,0,1,1,0-.64.32.32,0,0,1,0,.64Z" style="fill:#fff;stroke:#000;stroke-miterlimit:10;stroke-width:0.25px"/><path d="M50.71,67.9l0,0a1,1,0,0,0,.08-.33,1.1,1.1,0,0,0-2.2-.14,1.17,1.17,0,0,0,.07.46h0" style="fill:none;stroke:#000;stroke-miterlimit:10;stroke-width:0.5px"/></svg>