<svg id="Layer_1" data-name="Layer 1" xmlns="http://www.w3.org/2000/svg" viewBox="0 0 100.25 100.25"><line x1="49.81" y1="50.13" x2="49.81" y2="18.56" style="fill:#fff;stroke:#fff;stroke-miterlimit:10;stroke-width:0.5px"/><line x1="49.81" y1="66.42" x2="49.81" y2="52.5" style="fill:#fff;stroke:#fff;stroke-miterlimit:10;stroke-width:0.5px"/><line x1="49.8" y1="18.28" x2="51.29" y2="20.88" style="fill:#fff;stroke:#fff;stroke-miterlimit:10;stroke-width:0.5px"/><line x1="49.8" y1="18.28" x2="48.3" y2="20.88" style="fill:#fff;stroke:#fff;stroke-miterlimit:10;stroke-width:0.5px"/><line x1="49.8" y1="18.97" x2="49.8" y2="18.2" style="fill:#fff;stroke:#fff;stroke-miterlimit:10;stroke-width:0.5px"/><path d="M49.81,50.13A1.19,1.19,0,1,0,51,51.31,1.18,1.18,0,0,0,49.81,50.13Zm0,1.5a.32.32,0,1,1,0-.64.32.32,0,0,1,0,.64Z" style="fill:#fff;stroke:#fff;stroke-miterlimit:10;stroke-width:0.5px"/><path d="M52.09,69.9l.12,0a2.38,2.38,0,0,0,.17-.79,2.58,2.58,0,1,0-5.15-.31,2.69,2.69,0,0,0,.17,1.08l.11,0" style="fill:#fff;stroke:#fff;stroke-miterlimit:10;stroke-width:0.5px"/></svg>