<svg id="Layer_1" data-name="Layer 1" xmlns="http://www.w3.org/2000/svg" viewBox="0 0 5.66 52.12"><line x1="2.83" y1="31.98" x2="2.83" y2="0.41" style="fill:#fff;stroke:#fff;stroke-miterlimit:10;stroke-width:0.5px"/><path d="M49.81,51" transform="translate(-46.98 -18.15)" style="fill:#fff;stroke:#fff;stroke-miterlimit:10;stroke-width:0.25px"/><path d="M49.81,51.27" transform="translate(-46.98 -18.15)" style="fill:#fff;stroke:#fff;stroke-miterlimit:10;stroke-width:0.25px"/><line x1="2.83" y1="48.27" x2="2.83" y2="34.35" style="fill:#fff;stroke:#fff;stroke-miterlimit:10;stroke-width:0.5px"/><line x1="2.83" y1="0.12" x2="4.32" y2="2.73" style="fill:#fff;stroke:#fff;stroke-miterlimit:10;stroke-width:0.5px"/><line x1="2.83" y1="0.13" x2="1.33" y2="2.73" style="fill:#fff;stroke:#fff;stroke-miterlimit:10;stroke-width:0.5px"/><line x1="2.83" y1="0.81" x2="2.83" y2="0.05" style="fill:#fff;stroke:#fff;stroke-miterlimit:10;stroke-width:0.5px"/><path d="M49.81,50.13A1.19,1.19,0,1,0,51,51.31,1.18,1.18,0,0,0,49.81,50.13Zm0,1.5a.32.32,0,1,1,0-.64.32.32,0,0,1,0,.64Z" transform="translate(-46.98 -18.15)" style="fill:#fff;stroke:#fff;stroke-miterlimit:10;stroke-width:0.5px"/><path d="M47.65,69.83" transform="translate(-46.98 -18.15)" style="fill:#fff;stroke:#fff;stroke-miterlimit:10;stroke-width:0.5px"/><path d="M52.09,69.9l.12,0a2.38,2.38,0,0,0,.17-.79,2.58,2.58,0,1,0-5.15-.31,2.69,2.69,0,0,0,.17,1.08l.11,0" transform="translate(-46.98 -18.15)" style="fill:none;stroke:#fff;stroke-miterlimit:10;stroke-width:0.5px"/></svg>