<?xml version="1.0" standalone="no"?>
<!DOCTYPE svg PUBLIC "-//W3C//DTD SVG 20010904//EN"
 "http://www.w3.org/TR/2001/REC-SVG-20010904/DTD/svg10.dtd">
<svg version="1.0" xmlns="http://www.w3.org/2000/svg"
 width="700.000000pt" height="700.000000pt" viewBox="0 0 700.000000 700.000000"
 preserveAspectRatio="xMidYMid meet">
<metadata>
Created by potrace 1.11, written by Peter Selinger 2001-2013
</metadata>
<g transform="translate(0.000000,700.000000) scale(0.100000,-0.100000)"
fill="#000000" stroke="none">
<path d="M3210 6406 l0 -595 38 7 c20 4 134 7 252 7 118 0 232 -3 253 -7 l37
-7 0 595 0 594 -290 0 -290 0 0 -594z"/>
<path d="M1022 5974 l-203 -205 421 -422 c331 -332 423 -419 430 -407 27 48
231 259 338 350 l63 54 -418 418 c-230 230 -420 417 -423 417 -3 0 -96 -92
-208 -205z"/>
<path d="M5347 5762 l-418 -418 58 -49 c107 -91 316 -307 343 -354 7 -13 88
63 430 406 l422 423 -206 205 c-113 113 -207 205 -208 205 -2 0 -191 -189
-421 -418z"/>
<path d="M3348 5245 c-1 -1 -29 -5 -60 -9 -380 -40 -769 -233 -1044 -519 -236
-245 -402 -560 -458 -870 -9 -45 -18 -95 -22 -112 -3 -16 -7 -106 -9 -200 -4
-190 14 -342 60 -505 136 -484 467 -880 917 -1099 265 -129 501 -181 793 -176
172 3 202 6 340 35 265 55 531 183 745 358 118 97 292 290 355 394 156 257
235 472 272 738 10 72 10 371 0 435 -16 108 -29 172 -43 221 -8 28 -16 60 -18
70 -7 37 -76 206 -117 287 -120 239 -321 473 -541 630 -212 152 -486 265 -728
302 -25 4 -54 10 -65 12 -22 6 -371 13 -377 8z m312 -589 c276 -35 561 -196
745 -421 107 -130 209 -346 240 -506 31 -159 23 -375 -18 -530 -35 -131 -129
-325 -192 -395 -5 -6 -30 -36 -54 -65 -173 -209 -469 -367 -741 -396 -362 -39
-701 76 -953 325 -189 185 -317 440 -344 683 -34 316 41 602 223 845 93 123
225 242 354 317 118 68 306 131 430 143 36 3 66 7 68 8 5 5 187 -2 242 -8z"/>
<path d="M0 3500 l0 -290 594 0 595 0 -4 23 c-22 130 -22 397 0 535 l4 22
-595 0 -594 0 0 -290z"/>
<path d="M5815 3768 c15 -82 21 -368 10 -458 -4 -25 -8 -57 -10 -72 l-3 -28
594 0 594 0 0 290 0 290 -594 0 -595 0 4 -22z"/>
<path d="M1237 1652 l-418 -418 207 -208 207 -207 418 418 419 418 -63 54
c-81 71 -229 219 -298 299 l-54 62 -418 -418z"/>
<path d="M5324 2050 c-76 -94 -195 -218 -286 -299 l-108 -95 419 -418 419
-419 183 184 c101 101 194 195 206 208 l22 25 -418 418 -419 419 -18 -23z"/>
<path d="M3210 595 l0 -595 290 0 290 0 0 594 0 595 -22 -4 c-131 -21 -432
-21 -535 1 l-23 4 0 -595z"/>
</g>
</svg>
